<?xml version="1.0" encoding="UTF-8" standalone="no"?>
<!DOCTYPE svg PUBLIC "-//W3C//DTD SVG 1.1//EN"
 "http://www.w3.org/Graphics/SVG/1.1/DTD/svg11.dtd">
<!-- Generated by graphviz version 12.2.1 (0)
 -->
<!-- Title: dependency&#45;cruiser output Pages: 1 -->
<svg width="352pt" height="300pt"
 viewBox="0.00 0.00 351.50 300.00" xmlns="http://www.w3.org/2000/svg" xmlns:xlink="http://www.w3.org/1999/xlink">
<g id="graph0" class="graph" transform="scale(1 1) rotate(0) translate(4 296)">
<title>dependency&#45;cruiser output</title>
<polygon fill="white" stroke="none" points="-4,4 -4,-296 347.5,-296 347.5,4 -4,4"/>
<g id="clust1" class="cluster">
<title>cluster_validation</title>
<path fill="#ffffff" stroke="black" stroke-width="2" d="M20,-8C20,-8 254.25,-8 254.25,-8 260.25,-8 266.25,-14 266.25,-20 266.25,-20 266.25,-272 266.25,-272 266.25,-278 260.25,-284 254.25,-284 254.25,-284 20,-284 20,-284 14,-284 8,-278 8,-272 8,-272 8,-20 8,-20 8,-14 14,-8 20,-8"/>
<text text-anchor="middle" x="137.12" y="-271.45" font-family="Helvetica,sans-Serif" font-weight="bold" font-size="9.00">validation</text>
</g>
<g id="clust2" class="cluster">
<title>cluster_validation/validations</title>
<path fill="#ffffff" stroke="black" stroke-width="2" d="M28,-62C28,-62 88.5,-62 88.5,-62 94.5,-62 100.5,-68 100.5,-74 100.5,-74 100.5,-136 100.5,-136 100.5,-142 94.5,-148 88.5,-148 88.5,-148 28,-148 28,-148 22,-148 16,-142 16,-136 16,-136 16,-74 16,-74 16,-68 22,-62 28,-62"/>
<text text-anchor="middle" x="58.25" y="-135.45" font-family="Helvetica,sans-Serif" font-weight="bold" font-size="9.00">validations</text>
</g>
<g id="clust3" class="cluster">
<title>cluster_validation/validators</title>
<path fill="#ffffff" stroke="black" stroke-width="2" d="M120.5,-16C120.5,-16 246.25,-16 246.25,-16 252.25,-16 258.25,-22 258.25,-28 258.25,-28 258.25,-245 258.25,-245 258.25,-251 252.25,-257 246.25,-257 246.25,-257 120.5,-257 120.5,-257 114.5,-257 108.5,-251 108.5,-245 108.5,-245 108.5,-28 108.5,-28 108.5,-22 114.5,-16 120.5,-16"/>
<text text-anchor="middle" x="183.38" y="-244.45" font-family="Helvetica,sans-Serif" font-weight="bold" font-size="9.00">validators</text>
</g>
<!-- repository.js -->
<g id="node1" class="node">
<title>repository.js</title>
<g id="a_node1"><a xlink:href="repository.js" xlink:title="repository.js">
<path fill="#ffffcc" stroke="black" d="M337.08,-167.62C337.08,-167.62 280.67,-167.62 280.67,-167.62 277.46,-167.62 274.25,-164.42 274.25,-161.21 274.25,-161.21 274.25,-154.79 274.25,-154.79 274.25,-151.58 277.46,-148.38 280.67,-148.38 280.67,-148.38 337.08,-148.38 337.08,-148.38 340.29,-148.38 343.5,-151.58 343.5,-154.79 343.5,-154.79 343.5,-161.21 343.5,-161.21 343.5,-164.42 340.29,-167.62 337.08,-167.62"/>
<text text-anchor="middle" x="308.88" y="-155.07" font-family="Helvetica,sans-Serif" font-size="9.00">repository.js</text>
</a>
</g>
</g>
<!-- validation/validations/email.js -->
<g id="node2" class="node">
<title>validation/validations/email.js</title>
<g id="a_node2"><a xlink:href="validation/validations/email.js" xlink:title="email.js">
<path fill="#ffffcc" stroke="black" d="M78.83,-89.62C78.83,-89.62 37.67,-89.62 37.67,-89.62 34.46,-89.62 31.25,-86.42 31.25,-83.21 31.25,-83.21 31.25,-76.79 31.25,-76.79 31.25,-73.58 34.46,-70.38 37.67,-70.38 37.67,-70.38 78.83,-70.38 78.83,-70.38 82.04,-70.38 85.25,-73.58 85.25,-76.79 85.25,-76.79 85.25,-83.21 85.25,-83.21 85.25,-86.42 82.04,-89.62 78.83,-89.62"/>
<text text-anchor="start" x="41.38" y="-77.08" font-family="Helvetica,sans-Serif" font-size="9.00">email.js</text>
</a>
</g>
</g>
<!-- validation/validators/is&#45;email.js -->
<g id="node3" class="node">
<title>validation/validators/is&#45;email.js</title>
<g id="a_node3"><a xlink:href="validation/validators/is-email.js" xlink:title="is&#45;email.js">
<path fill="#ffffcc" stroke="black" d="M206.71,-43.62C206.71,-43.62 160.04,-43.62 160.04,-43.62 156.83,-43.62 153.62,-40.42 153.62,-37.21 153.62,-37.21 153.62,-30.79 153.62,-30.79 153.62,-27.58 156.83,-24.38 160.04,-24.38 160.04,-24.38 206.71,-24.38 206.71,-24.38 209.92,-24.38 213.12,-27.58 213.12,-30.79 213.12,-30.79 213.12,-37.21 213.12,-37.21 213.12,-40.42 209.92,-43.62 206.71,-43.62"/>
<text text-anchor="start" x="161.62" y="-31.07" font-family="Helvetica,sans-Serif" font-size="9.00">is&#45;email.js</text>
</a>
</g>
</g>
<!-- validation/validations/email.js&#45;&gt;validation/validators/is&#45;email.js -->
<g id="edge1" class="edge">
<title>validation/validations/email.js&#45;&gt;validation/validators/is&#45;email.js</title>
<path fill="none" stroke="#000000" stroke-width="2" stroke-opacity="0.200000" d="M72.33,-69.91C81.87,-63.04 95.37,-54.26 108.5,-49 119.83,-44.46 132.7,-41.24 144.5,-38.98"/>
<polygon fill="#000000" fill-opacity="0.200000" stroke="#000000" stroke-width="2" stroke-opacity="0.200000" points="144.74,-41.07 150.28,-37.95 144,-36.93 144.74,-41.07"/>
</g>
<!-- validation/validators/is&#45;max&#45;length.js -->
<g id="node4" class="node">
<title>validation/validators/is&#45;max&#45;length.js</title>
<g id="a_node4"><a xlink:href="validation/validators/is-max-length.js" xlink:title="is&#45;max&#45;length.js">
<path fill="#ffffcc" stroke="black" d="M220.58,-74.62C220.58,-74.62 146.17,-74.62 146.17,-74.62 142.96,-74.62 139.75,-71.42 139.75,-68.21 139.75,-68.21 139.75,-61.79 139.75,-61.79 139.75,-58.58 142.96,-55.38 146.17,-55.38 146.17,-55.38 220.58,-55.38 220.58,-55.38 223.79,-55.38 227,-58.58 227,-61.79 227,-61.79 227,-68.21 227,-68.21 227,-71.42 223.79,-74.62 220.58,-74.62"/>
<text text-anchor="start" x="147.75" y="-62.08" font-family="Helvetica,sans-Serif" font-size="9.00">is&#45;max&#45;length.js</text>
</a>
</g>
</g>
<!-- validation/validations/email.js&#45;&gt;validation/validators/is&#45;max&#45;length.js -->
<g id="edge2" class="edge">
<title>validation/validations/email.js&#45;&gt;validation/validators/is&#45;max&#45;length.js</title>
<path fill="none" stroke="#000000" stroke-width="2" stroke-opacity="0.200000" d="M85.66,-76.78C98.9,-75.17 115.39,-73.16 130.99,-71.26"/>
<polygon fill="#000000" fill-opacity="0.200000" stroke="#000000" stroke-width="2" stroke-opacity="0.200000" points="130.83,-73.39 136.54,-70.58 130.33,-69.23 130.83,-73.39"/>
</g>
<!-- validation/validators/is&#45;min&#45;length.js -->
<g id="node5" class="node">
<title>validation/validators/is&#45;min&#45;length.js</title>
<g id="a_node5"><a xlink:href="validation/validators/is-min-length.js" xlink:title="is&#45;min&#45;length.js">
<path fill="#ffffcc" stroke="black" d="M219.46,-105.62C219.46,-105.62 147.29,-105.62 147.29,-105.62 144.08,-105.62 140.88,-102.42 140.88,-99.21 140.88,-99.21 140.88,-92.79 140.88,-92.79 140.88,-89.58 144.08,-86.38 147.29,-86.38 147.29,-86.38 219.46,-86.38 219.46,-86.38 222.67,-86.38 225.88,-89.58 225.88,-92.79 225.88,-92.79 225.88,-99.21 225.88,-99.21 225.88,-102.42 222.67,-105.62 219.46,-105.62"/>
<text text-anchor="start" x="148.88" y="-93.08" font-family="Helvetica,sans-Serif" font-size="9.00">is&#45;min&#45;length.js</text>
</a>
</g>
</g>
<!-- validation/validations/email.js&#45;&gt;validation/validators/is&#45;min&#45;length.js -->
<g id="edge3" class="edge">
<title>validation/validations/email.js&#45;&gt;validation/validators/is&#45;min&#45;length.js</title>
<path fill="none" stroke="#000000" stroke-width="2" stroke-opacity="0.200000" d="M85.66,-83.43C99.14,-85.18 115.99,-87.37 131.84,-89.43"/>
<polygon fill="#000000" fill-opacity="0.200000" stroke="#000000" stroke-width="2" stroke-opacity="0.200000" points="131.28,-91.48 137.5,-90.17 131.83,-87.31 131.28,-91.48"/>
</g>
<!-- validation/validations/password.js -->
<g id="node6" class="node">
<title>validation/validations/password.js</title>
<g id="a_node6"><a xlink:href="validation/validations/password.js" xlink:title="password.js">
<path fill="#ffffcc" stroke="black" d="M86.08,-120.62C86.08,-120.62 30.42,-120.62 30.42,-120.62 27.21,-120.62 24,-117.42 24,-114.21 24,-114.21 24,-107.79 24,-107.79 24,-104.58 27.21,-101.38 30.42,-101.38 30.42,-101.38 86.08,-101.38 86.08,-101.38 89.29,-101.38 92.5,-104.58 92.5,-107.79 92.5,-107.79 92.5,-114.21 92.5,-114.21 92.5,-117.42 89.29,-120.62 86.08,-120.62"/>
<text text-anchor="start" x="32" y="-108.08" font-family="Helvetica,sans-Serif" font-size="9.00">password.js</text>
</a>
</g>
</g>
<!-- validation/validators/is&#45;strong&#45;password.js -->
<g id="node7" class="node">
<title>validation/validators/is&#45;strong&#45;password.js</title>
<g id="a_node7"><a xlink:href="validation/validators/is-strong-password.js" xlink:title="is&#45;strong&#45;password.js">
<path fill="#ffffcc" stroke="black" d="M232.21,-136.62C232.21,-136.62 134.54,-136.62 134.54,-136.62 131.33,-136.62 128.12,-133.42 128.12,-130.21 128.12,-130.21 128.12,-123.79 128.12,-123.79 128.12,-120.58 131.33,-117.38 134.54,-117.38 134.54,-117.38 232.21,-117.38 232.21,-117.38 235.42,-117.38 238.62,-120.58 238.62,-123.79 238.62,-123.79 238.62,-130.21 238.62,-130.21 238.62,-133.42 235.42,-136.62 232.21,-136.62"/>
<text text-anchor="start" x="136.12" y="-124.08" font-family="Helvetica,sans-Serif" font-size="9.00">is&#45;strong&#45;password.js</text>
</a>
</g>
</g>
<!-- validation/validations/password.js&#45;&gt;validation/validators/is&#45;strong&#45;password.js -->
<g id="edge4" class="edge">
<title>validation/validations/password.js&#45;&gt;validation/validators/is&#45;strong&#45;password.js</title>
<path fill="none" stroke="#000000" stroke-width="2" stroke-opacity="0.200000" d="M92.89,-115.37C101.1,-116.44 110.14,-117.61 119.22,-118.79"/>
<polygon fill="#000000" fill-opacity="0.200000" stroke="#000000" stroke-width="2" stroke-opacity="0.200000" points="118.7,-120.84 124.92,-119.53 119.24,-116.68 118.7,-120.84"/>
</g>
<!-- validation/validators/is&#45;email&#45;not&#45;registered&#45;s.js -->
<g id="node8" class="node">
<title>validation/validators/is&#45;email&#45;not&#45;registered&#45;s.js</title>
<g id="a_node8"><a xlink:href="validation/validators/is-email-not-registered-s.js" xlink:title="is&#45;email&#45;not&#45;registered&#45;s.js">
<path fill="#ffffcc" stroke="black" d="M243.83,-167.62C243.83,-167.62 122.92,-167.62 122.92,-167.62 119.71,-167.62 116.5,-164.42 116.5,-161.21 116.5,-161.21 116.5,-154.79 116.5,-154.79 116.5,-151.58 119.71,-148.38 122.92,-148.38 122.92,-148.38 243.83,-148.38 243.83,-148.38 247.04,-148.38 250.25,-151.58 250.25,-154.79 250.25,-154.79 250.25,-161.21 250.25,-161.21 250.25,-164.42 247.04,-167.62 243.83,-167.62"/>
<text text-anchor="start" x="124.5" y="-155.07" font-family="Helvetica,sans-Serif" font-size="9.00">is&#45;email&#45;not&#45;registered&#45;s.js</text>
</a>
</g>
</g>
<!-- validation/validators/is&#45;email&#45;not&#45;registered&#45;s.js&#45;&gt;repository.js -->
<g id="edge5" class="edge">
<title>validation/validators/is&#45;email&#45;not&#45;registered&#45;s.js&#45;&gt;repository.js</title>
<path fill="none" stroke="#000000" stroke-width="2" stroke-opacity="0.200000" d="M250.46,-158C255.43,-158 260.35,-158 265.11,-158"/>
<polygon fill="#000000" fill-opacity="0.200000" stroke="#000000" stroke-width="2" stroke-opacity="0.200000" points="264.99,-160.1 270.99,-158 264.99,-155.9 264.99,-160.1"/>
</g>
<!-- validation/validators/is&#45;email&#45;not&#45;registered.js -->
<g id="node9" class="node">
<title>validation/validators/is&#45;email&#45;not&#45;registered.js</title>
<g id="a_node9"><a xlink:href="validation/validators/is-email-not-registered.js" xlink:title="no&#45;orphans">
<path fill="#ccffcc" stroke="orange" d="M240.08,-198.62C240.08,-198.62 126.67,-198.62 126.67,-198.62 123.46,-198.62 120.25,-195.42 120.25,-192.21 120.25,-192.21 120.25,-185.79 120.25,-185.79 120.25,-182.58 123.46,-179.38 126.67,-179.38 126.67,-179.38 240.08,-179.38 240.08,-179.38 243.29,-179.38 246.5,-182.58 246.5,-185.79 246.5,-185.79 246.5,-192.21 246.5,-192.21 246.5,-195.42 243.29,-198.62 240.08,-198.62"/>
<text text-anchor="start" x="128.25" y="-186.07" font-family="Helvetica,sans-Serif" font-size="9.00" fill="orange">is&#45;email&#45;not&#45;registered.js</text>
</a>
</g>
</g>
<!-- validation/validators/is&#45;password&#45;confirmed.js -->
<g id="node10" class="node">
<title>validation/validators/is&#45;password&#45;confirmed.js</title>
<g id="a_node10"><a xlink:href="validation/validators/is-password-confirmed.js" xlink:title="no&#45;orphans">
<path fill="#ccffcc" stroke="orange" d="M240.83,-229.62C240.83,-229.62 125.92,-229.62 125.92,-229.62 122.71,-229.62 119.5,-226.42 119.5,-223.21 119.5,-223.21 119.5,-216.79 119.5,-216.79 119.5,-213.58 122.71,-210.38 125.92,-210.38 125.92,-210.38 240.83,-210.38 240.83,-210.38 244.04,-210.38 247.25,-213.58 247.25,-216.79 247.25,-216.79 247.25,-223.21 247.25,-223.21 247.25,-226.42 244.04,-229.62 240.83,-229.62"/>
<text text-anchor="start" x="127.5" y="-217.07" font-family="Helvetica,sans-Serif" font-size="9.00" fill="orange">is&#45;password&#45;confirmed.js</text>
</a>
</g>
</g>
</g>
</svg>
